# xmcd
#
# Track frame offsets:
#	150
#	11935
#	28354
#	43067
#	61241
#	79088
#	95483
#	113634
#	129691
#	146082
#	161630
#	178983
#	187827
#	203592
#	218200
#	232906
#	255003
#
# Disc length: 3651 seconds
#
# Revision: 1
# Processed by: cddbd v1.5.1PL0 Copyright (c) Steve Scherf et al.
# Submitted via: EasyCDDAExtractor 8.1.4.1
#
DISCID=ea0e4111
DTITLE=Demis Roussos - The Best Of (Goodbye my love, goodbye)
DYEAR=1900
DGENRE=
TTITLE0=From souvenirs to souvenirs
TTITLE1=Forever and ever
TTITLE2=(When) I'm a kid
TTITLE3=My reason
TTITLE4=Goodbye my love, goodbye
TTITLE5=Good days has gone
TTITLE6=Lovely sunny days
TTITLE7=We shall dance
TTITLE8=Velvet morning
TTITLE9=Rebecca
TTITLE10=My friend the wind
TTITLE11=Without you
TTITLE12=It's five o'clock
TTITLE13=Rain and tears
TTITLE14=End of the world
TTITLE15=Spring, summer, winter and fall
TTITLE16=Lost in a dream
EXTD=
EXTT0=
EXTT1=
EXTT2=
EXTT3=
EXTT4=
EXTT5=
EXTT6=
EXTT7=
EXTT8=
EXTT9=
EXTT10=
EXTT11=
EXTT12=
EXTT13=
EXTT14=
EXTT15=
EXTT16=
PLAYORDER=
